<svg width="35" height="35" viewBox="0 0 35 35" fill="none" xmlns="http://www.w3.org/2000/svg">
<path d="M4.74268 15.0364C5.41414 11.6791 5.74987 10.0005 6.8592 8.91929C7.06424 8.71947 7.28605 8.53762 7.52221 8.37576C8.79993 7.5 10.5118 7.5 13.9356 7.5H16.0643C19.4881 7.5 21.2 7.5 22.4777 8.37576C22.7139 8.53762 22.9357 8.71947 23.1407 8.91929C24.2501 10.0005 24.5858 11.6791 25.2572 15.0364C26.2212 19.8564 26.7032 22.2664 25.5937 23.9742C25.3928 24.2834 25.1583 24.5694 24.8945 24.8271C23.4375 26.25 20.9798 26.25 16.0643 26.25H13.9356C9.02016 26.25 6.56243 26.25 5.10546 24.8271C4.84165 24.5694 4.60716 24.2834 4.40625 23.9742C3.29667 22.2664 3.77868 19.8564 4.74268 15.0364Z" stroke="white" stroke-width="1.5"/>
<circle cx="18.75" cy="11.25" r="1.25" fill="white"/>
<circle cx="11.25" cy="11.25" r="1.25" fill="white"/>
<path d="M11.25 7.5V6.25C11.25 4.17893 12.9289 2.5 15 2.5C17.0711 2.5 18.75 4.17893 18.75 6.25V7.5" stroke="white" stroke-width="1.5" stroke-linecap="round"/>
<rect x="15" y="15" width="20" height="20" rx="10" fill="#332623"/>
<path d="M24.9836 29.0994C24.5669 29.0994 24.1917 29.0166 23.8579 28.8509C23.5241 28.6851 23.2565 28.4579 23.0553 28.169C22.8541 27.8802 22.744 27.5511 22.7251 27.1818H23.5773C23.6105 27.5109 23.7596 27.7831 24.0248 27.9986C24.2923 28.2116 24.6119 28.3182 24.9836 28.3182C25.2819 28.3182 25.547 28.2483 25.779 28.1087C26.0134 27.969 26.1969 27.7772 26.3295 27.5334C26.4644 27.2872 26.5319 27.009 26.5319 26.6989C26.5319 26.3816 26.462 26.0987 26.3224 25.8501C26.185 25.5992 25.9957 25.4015 25.7542 25.2571C25.5127 25.1127 25.2369 25.0393 24.9268 25.0369C24.7042 25.0346 24.4758 25.0689 24.2414 25.1399C24.007 25.2086 23.8141 25.2973 23.6626 25.4062L22.8387 25.3068L23.279 21.7273H27.0574V22.5085H24.0177L23.762 24.6534H23.8046C23.9537 24.535 24.1408 24.4368 24.3657 24.3587C24.5906 24.2805 24.825 24.2415 25.0688 24.2415C25.5139 24.2415 25.9104 24.348 26.2584 24.5611C26.6088 24.7718 26.8834 25.0606 27.0823 25.4276C27.2835 25.7945 27.3841 26.2135 27.3841 26.6847C27.3841 27.1487 27.28 27.563 27.0716 27.9276C26.8657 28.2898 26.5816 28.5762 26.2194 28.7869C25.8572 28.9953 25.4452 29.0994 24.9836 29.0994Z" fill="white"/>
</svg>
