<svg viewBox="0 0 66 66" fill="none" xmlns="http://www.w3.org/2000/svg">
<path fill-rule="evenodd" clip-rule="evenodd" d="M33 4.60465C17.3177 4.60465 4.60465 17.3177 4.60465 33C4.60465 37.5465 5.67147 41.8372 7.56635 45.6416C8.32687 47.1685 8.61973 48.9943 8.13989 50.7877L6.31152 57.6211C5.97572 58.8761 7.12389 60.0243 8.37891 59.6885L15.2123 57.8601C17.0057 57.3803 18.8315 57.6731 20.3584 58.4337C24.1628 60.3285 28.4535 61.3953 33 61.3953C48.6823 61.3953 61.3953 48.6823 61.3953 33C61.3953 17.3177 48.6823 4.60465 33 4.60465ZM0 33C0 14.7746 14.7746 0 33 0C51.2254 0 66 14.7746 66 33C66 51.2254 51.2254 66 33 66C27.7252 66 22.7332 64.7607 18.3055 62.5553C17.6447 62.2262 16.9701 62.1564 16.4025 62.3083L9.56908 64.1367C4.89127 65.3883 0.611723 61.1087 1.86334 56.4309L3.69172 49.5975C3.84358 49.0299 3.77377 48.3553 3.44467 47.6945C1.23929 43.2668 0 38.2748 0 33ZM18.4186 28.3953C18.4186 27.1238 19.4494 26.093 20.7209 26.093H45.2791C46.5506 26.093 47.5814 27.1238 47.5814 28.3953C47.5814 29.6669 46.5506 30.6977 45.2791 30.6977H20.7209C19.4494 30.6977 18.4186 29.6669 18.4186 28.3953ZM18.4186 39.1395C18.4186 37.868 19.4494 36.8372 20.7209 36.8372H37.6047C38.8762 36.8372 39.907 37.868 39.907 39.1395C39.907 40.4111 38.8762 41.4419 37.6047 41.4419H20.7209C19.4494 41.4419 18.4186 40.4111 18.4186 39.1395Z" fill="white"/>
</svg>
