<svg viewBox="0 0 30 30" fill="none" xmlns="http://www.w3.org/2000/svg">
<path d="M11.2022 23.6384L11.6665 23.0494L11.2022 23.6384ZM15 6.87561L14.4596 7.39571C14.601 7.5426 14.7961 7.62561 15 7.62561C15.2039 7.62561 15.399 7.5426 15.5404 7.39571L15 6.87561ZM18.7978 23.6384L19.2621 24.2274L18.7978 23.6384ZM11.2022 23.6384L11.6665 23.0494C9.78303 21.5647 7.6906 20.0909 6.03266 18.224C4.40043 16.3861 3.25 14.2265 3.25 11.4212H2.5H1.75C1.75 14.6946 3.11171 17.1939 4.91109 19.2201C6.68476 21.2173 8.94341 22.8128 10.7379 24.2274L11.2022 23.6384ZM2.5 11.4212H3.25C3.25 8.66245 4.80913 6.33927 6.9525 5.35953C9.04859 4.4014 11.8392 4.67315 14.4596 7.39571L15 6.87561L15.5404 6.35551C12.536 3.2341 9.07661 2.73931 6.3289 3.9953C3.62847 5.22967 1.75 8.10125 1.75 11.4212H2.5ZM11.2022 23.6384L10.7379 24.2274C11.3799 24.7335 12.0572 25.2634 12.7406 25.6628C13.4239 26.0621 14.1846 26.3748 15 26.3748V25.6248V24.8748C14.5654 24.8748 14.0761 24.7059 13.4974 24.3677C12.9189 24.0297 12.3223 23.5664 11.6665 23.0494L11.2022 23.6384ZM18.7978 23.6384L19.2621 24.2274C21.0566 22.8128 23.3152 21.2173 25.0889 19.2201C26.8883 17.1939 28.25 14.6946 28.25 11.4212H27.5H26.75C26.75 14.2265 25.5996 16.3861 23.9673 18.224C22.3094 20.0909 20.217 21.5647 18.3335 23.0494L18.7978 23.6384ZM27.5 11.4212H28.25C28.25 8.10125 26.3715 5.22967 23.6711 3.9953C20.9234 2.73931 17.464 3.2341 14.4596 6.35551L15 6.87561L15.5404 7.39571C18.1608 4.67315 20.9514 4.4014 23.0475 5.35953C25.1909 6.33927 26.75 8.66245 26.75 11.4212H27.5ZM18.7978 23.6384L18.3335 23.0494C17.6777 23.5664 17.0811 24.0297 16.5026 24.3677C15.9239 24.7059 15.4346 24.8748 15 24.8748V25.6248V26.3748C15.8154 26.3748 16.5761 26.0621 17.2594 25.6628C17.9428 25.2634 18.6201 24.7335 19.2621 24.2274L18.7978 23.6384Z" fill="white"/>
</svg>
