<svg width="106" height="106" viewBox="0 0 106 106" fill="none" xmlns="http://www.w3.org/2000/svg">
<rect width="106" height="106" rx="53" fill="#F26B2B"/>
<path fill-rule="evenodd" clip-rule="evenodd" d="M53 24.6047C37.3177 24.6047 24.6047 37.3177 24.6047 53C24.6047 57.5465 25.6715 61.8372 27.5664 65.6416C28.3269 67.1685 28.6197 68.9943 28.1399 70.7877L26.3115 77.6211C25.9757 78.8761 27.1239 80.0243 28.3789 79.6885L35.2123 77.8601C37.0057 77.3803 38.8315 77.6731 40.3584 78.4337C44.1628 80.3285 48.4535 81.3953 53 81.3953C68.6823 81.3953 81.3953 68.6823 81.3953 53C81.3953 37.3177 68.6823 24.6047 53 24.6047ZM20 53C20 34.7746 34.7746 20 53 20C71.2254 20 86 34.7746 86 53C86 71.2254 71.2254 86 53 86C47.7252 86 42.7332 84.7607 38.3055 82.5553C37.6447 82.2262 36.9701 82.1564 36.4025 82.3083L29.5691 84.1367C24.8913 85.3883 20.6117 81.1087 21.8633 76.4309L23.6917 69.5975C23.8436 69.0299 23.7738 68.3553 23.4447 67.6945C21.2393 63.2668 20 58.2748 20 53ZM38.4186 48.3953C38.4186 47.1238 39.4494 46.093 40.7209 46.093H65.2791C66.5506 46.093 67.5814 47.1238 67.5814 48.3953C67.5814 49.6669 66.5506 50.6977 65.2791 50.6977H40.7209C39.4494 50.6977 38.4186 49.6669 38.4186 48.3953ZM38.4186 59.1395C38.4186 57.868 39.4494 56.8372 40.7209 56.8372H57.6047C58.8762 56.8372 59.907 57.868 59.907 59.1395C59.907 60.4111 58.8762 61.4419 57.6047 61.4419H40.7209C39.4494 61.4419 38.4186 60.4111 38.4186 59.1395Z" fill="white"/>
</svg>
