<svg viewBox="0 0 122 81" fill="none" xmlns="http://www.w3.org/2000/svg">
<g clip-path="url(#clip0_3018_14166)">
<line x1="27.6408" y1="30.1477" x2="27.6407" y2="0.999189" stroke="white" stroke-width="1.26733"/>
<line x1="27.6346" y1="51.6936" x2="27.6346" y2="80.8421" stroke="white" stroke-width="1.26733"/>
<line x1="89.7355" y1="30.1477" x2="89.7355" y2="2.26652" stroke="white" stroke-width="1.26733"/>
<line x1="89.7362" y1="51.6936" x2="89.7362" y2="80.8421" stroke="white" stroke-width="1.26733"/>
<line x1="27.001" y1="1.63343" x2="90.3673" y2="1.63343" stroke="white" stroke-width="1.26733"/>
<line x1="27.001" y1="80.2072" x2="90.3673" y2="80.2072" stroke="white" stroke-width="1.26733"/>
<rect x="51" y="11" width="15" height="15" fill="white"/>
<g clip-path="url(#clip1_3018_14166)">
<path d="M42.2642 60V57.8182H42.5284V59.7656H43.5426V60H42.2642ZM45.3835 57.8182H45.6477V59.2628C45.6477 59.4119 45.6126 59.5451 45.5423 59.6623C45.4727 59.7788 45.3743 59.8707 45.2472 59.9382C45.12 60.005 44.9709 60.0384 44.7997 60.0384C44.6286 60.0384 44.4794 60.005 44.3523 59.9382C44.2251 59.8707 44.1264 59.7788 44.0561 59.6623C43.9865 59.5451 43.9517 59.4119 43.9517 59.2628V57.8182H44.2159V59.2415C44.2159 59.348 44.2393 59.4428 44.2862 59.5259C44.3331 59.6083 44.3999 59.6733 44.4865 59.7209C44.5739 59.7678 44.6783 59.7912 44.7997 59.7912C44.9212 59.7912 45.0256 59.7678 45.1129 59.7209C45.2003 59.6733 45.267 59.6083 45.3132 59.5259C45.3601 59.4428 45.3835 59.348 45.3835 59.2415V57.8182ZM46.3032 57.8182L46.8657 58.7259H46.8827L47.4452 57.8182H47.7563L47.0702 58.9091L47.7563 60H47.4452L46.8827 59.1094H46.8657L46.3032 60H45.9921L46.6952 58.9091L45.9921 57.8182H46.3032ZM49.532 57.8182H49.7962V59.2628C49.7962 59.4119 49.761 59.5451 49.6907 59.6623C49.6211 59.7788 49.5227 59.8707 49.3956 59.9382C49.2685 60.005 49.1193 60.0384 48.9482 60.0384C48.777 60.0384 48.6278 60.005 48.5007 59.9382C48.3736 59.8707 48.2749 59.7788 48.2045 59.6623C48.1349 59.5451 48.1001 59.4119 48.1001 59.2628V57.8182H48.3643V59.2415C48.3643 59.348 48.3878 59.4428 48.4347 59.5259C48.4815 59.6083 48.5483 59.6733 48.6349 59.7209C48.7223 59.7678 48.8267 59.7912 48.9482 59.7912C49.0696 59.7912 49.174 59.7678 49.2614 59.7209C49.3487 59.6733 49.4155 59.6083 49.4616 59.5259C49.5085 59.4428 49.532 59.348 49.532 59.2415V57.8182ZM50.3238 60V57.8182H51.061C51.2314 57.8182 51.3714 57.8473 51.4807 57.9055C51.5901 57.9631 51.6711 58.0423 51.7236 58.1431C51.7762 58.244 51.8025 58.3587 51.8025 58.4872C51.8025 58.6158 51.7762 58.7298 51.7236 58.8292C51.6711 58.9286 51.5905 59.0067 51.4818 59.0636C51.3731 59.1197 51.2343 59.1477 51.0653 59.1477H50.4687V58.9091H51.0567C51.1732 58.9091 51.267 58.892 51.338 58.858C51.4097 58.8239 51.4616 58.7756 51.4935 58.7131C51.5262 58.6499 51.5425 58.5746 51.5425 58.4872C51.5425 58.3999 51.5262 58.3235 51.4935 58.2582C51.4608 58.1928 51.4086 58.1424 51.3369 58.1069C51.2652 58.0707 51.1704 58.0526 51.0525 58.0526H50.588V60H50.3238ZM51.3508 59.0199L51.8877 60H51.5809L51.0525 59.0199H51.3508ZM51.982 57.8182H52.2845L52.8896 58.8366H52.9152L53.5203 57.8182H53.8229L53.0345 59.1009V60H52.7703V59.1009L51.982 57.8182ZM55.0083 60V57.8182H56.3166V58.0526H55.2725V58.7898H56.2186V59.0241H55.2725V60H55.0083ZM56.7691 60V57.8182H57.5063C57.6768 57.8182 57.8167 57.8473 57.926 57.9055C58.0354 57.9631 58.1164 58.0423 58.1689 58.1431C58.2215 58.244 58.2478 58.3587 58.2478 58.4872C58.2478 58.6158 58.2215 58.7298 58.1689 58.8292C58.1164 58.9286 58.0358 59.0067 57.9271 59.0636C57.8184 59.1197 57.6796 59.1477 57.5106 59.1477H56.914V58.9091H57.502C57.6185 58.9091 57.7123 58.892 57.7833 58.858C57.855 58.8239 57.9069 58.7756 57.9388 58.7131C57.9715 58.6499 57.9878 58.5746 57.9878 58.4872C57.9878 58.3999 57.9715 58.3235 57.9388 58.2582C57.9062 58.1928 57.854 58.1424 57.7822 58.1069C57.7105 58.0707 57.6157 58.0526 57.4978 58.0526H57.0333V60H56.7691ZM57.7961 59.0199L58.333 60H58.0262L57.4978 59.0199H57.7961ZM58.7775 60H58.5005L59.3017 57.8182H59.5744L60.3755 60H60.0985L59.4466 58.1634H59.4295L58.7775 60ZM58.8798 59.1477H59.9963V59.3821H58.8798V59.1477ZM62.1043 58.5C62.0809 58.4283 62.05 58.364 62.0116 58.3072C61.974 58.2496 61.9289 58.2006 61.8763 58.1602C61.8245 58.1197 61.7655 58.0888 61.6995 58.0675C61.6334 58.0462 61.561 58.0355 61.4822 58.0355C61.3529 58.0355 61.2354 58.0689 61.1295 58.1357C61.0237 58.2024 60.9395 58.3008 60.877 58.4308C60.8145 58.5607 60.7833 58.7202 60.7833 58.9091C60.7833 59.098 60.8149 59.2575 60.8781 59.3874C60.9413 59.5174 61.0269 59.6158 61.1349 59.6825C61.2428 59.7493 61.3643 59.7827 61.4992 59.7827C61.6242 59.7827 61.7343 59.756 61.8295 59.7028C61.9253 59.6488 61.9999 59.5728 62.0532 59.4748C62.1072 59.3761 62.1341 59.2599 62.1341 59.1264L62.2151 59.1435H61.5589V58.9091H62.3898V59.1435C62.3898 59.3232 62.3515 59.4794 62.2748 59.6122C62.1988 59.745 62.0937 59.848 61.9594 59.9212C61.8259 59.9936 61.6725 60.0298 61.4992 60.0298C61.306 60.0298 61.1363 59.9844 60.99 59.8935C60.8444 59.8026 60.7307 59.6733 60.6491 59.5057C60.5681 59.3381 60.5276 59.1392 60.5276 58.9091C60.5276 58.7365 60.5507 58.5813 60.5969 58.4435C60.6437 58.305 60.7098 58.1871 60.795 58.0898C60.8802 57.9925 60.9811 57.918 61.0976 57.8661C61.214 57.8143 61.3422 57.7884 61.4822 57.7884C61.5972 57.7884 61.7045 57.8058 61.8039 57.8406C61.904 57.8746 61.9932 57.9233 62.0713 57.9865C62.1501 58.049 62.2158 58.1239 62.2684 58.2113C62.3209 58.2979 62.3572 58.3942 62.377 58.5H62.1043ZM62.8423 60V57.8182H63.5795C63.75 57.8182 63.8899 57.8473 63.9993 57.9055C64.1087 57.9631 64.1896 58.0423 64.2422 58.1431C64.2947 58.244 64.321 58.3587 64.321 58.4872C64.321 58.6158 64.2947 58.7298 64.2422 58.8292C64.1896 58.9286 64.109 59.0067 64.0004 59.0636C63.8917 59.1197 63.7528 59.1477 63.5838 59.1477H62.9872V58.9091H63.5753C63.6918 58.9091 63.7855 58.892 63.8565 58.858C63.9283 58.8239 63.9801 58.7756 64.0121 58.7131C64.0447 58.6499 64.0611 58.5746 64.0611 58.4872C64.0611 58.3999 64.0447 58.3235 64.0121 58.2582C63.9794 58.1928 63.9272 58.1424 63.8555 58.1069C63.7837 58.0707 63.6889 58.0526 63.571 58.0526H63.1065V60H62.8423ZM63.8693 59.0199L64.4062 60H64.0994L63.571 59.0199H63.8693ZM64.8508 60H64.5738L65.3749 57.8182H65.6476L66.4488 60H66.1718L65.5198 58.1634H65.5028L64.8508 60ZM64.953 59.1477H66.0695V59.3821H64.953V59.1477ZM68.5187 57.8182V60H68.2631L67.0741 58.2869H67.0528V60H66.7886V57.8182H67.0443L68.2375 59.5355H68.2588V57.8182H68.5187ZM70.8031 58.5H70.5389C70.5233 58.424 70.4959 58.3572 70.4569 58.2997C70.4185 58.2422 70.3716 58.1939 70.3162 58.1548C70.2615 58.1151 70.2008 58.0852 70.1341 58.0653C70.0673 58.0455 69.9977 58.0355 69.9252 58.0355C69.7931 58.0355 69.6735 58.0689 69.5662 58.1357C69.4597 58.2024 69.3748 58.3008 69.3116 58.4308C69.2491 58.5607 69.2179 58.7202 69.2179 58.9091C69.2179 59.098 69.2491 59.2575 69.3116 59.3874C69.3748 59.5174 69.4597 59.6158 69.5662 59.6825C69.6735 59.7493 69.7931 59.7827 69.9252 59.7827C69.9977 59.7827 70.0673 59.7727 70.1341 59.7528C70.2008 59.733 70.2615 59.7035 70.3162 59.6644C70.3716 59.6246 70.4185 59.576 70.4569 59.5185C70.4959 59.4602 70.5233 59.3935 70.5389 59.3182H70.8031C70.7832 59.4297 70.747 59.5295 70.6944 59.6175C70.6419 59.7056 70.5765 59.7805 70.4984 59.8423C70.4203 59.9034 70.3326 59.9499 70.2353 59.9819C70.1387 60.0138 70.0353 60.0298 69.9252 60.0298C69.7392 60.0298 69.5737 59.9844 69.4288 59.8935C69.2839 59.8026 69.1699 59.6733 69.0868 59.5057C69.0037 59.3381 68.9622 59.1392 68.9622 58.9091C68.9622 58.679 69.0037 58.4801 69.0868 58.3125C69.1699 58.1449 69.2839 58.0156 69.4288 57.9247C69.5737 57.8338 69.7392 57.7884 69.9252 57.7884C70.0353 57.7884 70.1387 57.8043 70.2353 57.8363C70.3326 57.8683 70.4203 57.9151 70.4984 57.9769C70.5765 58.038 70.6419 58.1126 70.6944 58.2006C70.747 58.288 70.7832 58.3878 70.8031 58.5ZM71.23 60V57.8182H72.5468V58.0526H71.4942V58.7898H72.4786V59.0241H71.4942V59.7656H72.5638V60H71.23ZM74.2162 58.3636C74.2034 58.2557 74.1515 58.1719 74.0606 58.1122C73.9697 58.0526 73.8582 58.0227 73.7261 58.0227C73.6295 58.0227 73.545 58.0384 73.4726 58.0696C73.4008 58.1009 73.3447 58.1438 73.3042 58.1985C73.2645 58.2532 73.2446 58.3153 73.2446 58.3849C73.2446 58.4432 73.2584 58.4933 73.2861 58.5352C73.3145 58.5763 73.3508 58.6108 73.3948 58.6385C73.4388 58.6655 73.485 58.6879 73.5333 58.7056C73.5816 58.7227 73.626 58.7365 73.6665 58.7472L73.8881 58.8068C73.9449 58.8217 74.0081 58.8423 74.0777 58.8686C74.148 58.8949 74.2151 58.9308 74.279 58.9762C74.3437 59.021 74.3969 59.0785 74.4388 59.1488C74.4807 59.2191 74.5017 59.3054 74.5017 59.4077C74.5017 59.5256 74.4708 59.6321 74.409 59.7273C74.3479 59.8224 74.2584 59.8981 74.1405 59.9542C74.0233 60.0103 73.8809 60.0384 73.7133 60.0384C73.5571 60.0384 73.4218 60.0131 73.3074 59.9627C73.1938 59.9123 73.1043 59.842 73.039 59.7518C72.9743 59.6616 72.9378 59.5568 72.9292 59.4375H73.202C73.2091 59.5199 73.2368 59.5881 73.2851 59.642C73.3341 59.6953 73.3959 59.7351 73.4704 59.7614C73.5457 59.7869 73.6267 59.7997 73.7133 59.7997C73.8142 59.7997 73.9047 59.7834 73.985 59.7507C74.0653 59.7173 74.1288 59.6712 74.1757 59.6122C74.2226 59.5526 74.246 59.483 74.246 59.4034C74.246 59.331 74.2258 59.272 74.1853 59.2266C74.1448 59.1811 74.0915 59.1442 74.0255 59.1158C73.9594 59.0874 73.8881 59.0625 73.8113 59.0412L73.5429 58.9645C73.3724 58.9155 73.2375 58.8455 73.1381 58.7546C73.0386 58.6637 72.9889 58.5447 72.9889 58.3977C72.9889 58.2756 73.0219 58.169 73.088 58.0781C73.1547 57.9865 73.2442 57.9155 73.3564 57.8651C73.4694 57.8139 73.5954 57.7884 73.7346 57.7884C73.8753 57.7884 74.0003 57.8136 74.1096 57.864C74.219 57.9137 74.3057 57.9819 74.3696 58.0685C74.4342 58.1552 74.4683 58.2536 74.4719 58.3636H74.2162Z" fill="white"/>
<line x1="41.189" y1="61.811" x2="75.811" y2="61.811" stroke="white" stroke-width="0.37793" stroke-linecap="round"/>
<path d="M55.033 66V65.8082L55.7532 65.0199C55.8377 64.9276 55.9073 64.8473 55.962 64.7791C56.0166 64.7102 56.0571 64.6456 56.0834 64.5852C56.1104 64.5241 56.1239 64.4602 56.1239 64.3935C56.1239 64.3168 56.1054 64.2504 56.0685 64.1942C56.0323 64.1381 55.9826 64.0948 55.9193 64.0643C55.8561 64.0337 55.7851 64.0185 55.7063 64.0185C55.6225 64.0185 55.5493 64.0359 55.4868 64.0707C55.425 64.1048 55.3771 64.1527 55.343 64.2145C55.3096 64.2763 55.2929 64.3487 55.2929 64.4318H55.0415C55.0415 64.304 55.071 64.1918 55.1299 64.0952C55.1889 63.9986 55.2691 63.9233 55.3707 63.8693C55.473 63.8153 55.5877 63.7884 55.7148 63.7884C55.8426 63.7884 55.9559 63.8153 56.0546 63.8693C56.1534 63.9233 56.2308 63.9961 56.2869 64.0877C56.343 64.1793 56.371 64.2812 56.371 64.3935C56.371 64.4737 56.3565 64.5522 56.3274 64.6289C56.299 64.7049 56.2492 64.7898 56.1782 64.8835C56.1079 64.9766 56.0103 65.0902 55.8853 65.2244L55.3952 65.7486V65.7656H56.4094V66H55.033ZM57.561 66.0298C57.4005 66.0298 57.2638 65.9862 57.1509 65.8988C57.038 65.8107 56.9517 65.6832 56.892 65.5163C56.8323 65.3487 56.8025 65.1463 56.8025 64.9091C56.8025 64.6733 56.8323 64.4719 56.892 64.305C56.9524 64.1374 57.039 64.0096 57.1519 63.9215C57.2656 63.8327 57.4019 63.7884 57.561 63.7884C57.7201 63.7884 57.8561 63.8327 57.9691 63.9215C58.0827 64.0096 58.1693 64.1374 58.229 64.305C58.2894 64.4719 58.3196 64.6733 58.3196 64.9091C58.3196 65.1463 58.2897 65.3487 58.2301 65.5163C58.1704 65.6832 58.0841 65.8107 57.9712 65.8988C57.8583 65.9862 57.7215 66.0298 57.561 66.0298ZM57.561 65.7955C57.7201 65.7955 57.8437 65.7187 57.9318 65.5653C58.0198 65.4119 58.0639 65.1932 58.0639 64.9091C58.0639 64.7202 58.0436 64.5593 58.0032 64.4265C57.9634 64.2937 57.9059 64.1925 57.8306 64.1229C57.756 64.0533 57.6661 64.0185 57.561 64.0185C57.4034 64.0185 57.2801 64.0962 57.1914 64.2518C57.1026 64.4066 57.0582 64.6257 57.0582 64.9091C57.0582 65.098 57.0781 65.2585 57.1179 65.3906C57.1576 65.5227 57.2148 65.6232 57.2894 65.6921C57.3647 65.761 57.4552 65.7955 57.561 65.7955ZM58.7244 66V65.8082L59.4446 65.0199C59.5291 64.9276 59.5987 64.8473 59.6534 64.7791C59.7081 64.7102 59.7485 64.6456 59.7748 64.5852C59.8018 64.5241 59.8153 64.4602 59.8153 64.3935C59.8153 64.3168 59.7968 64.2504 59.7599 64.1942C59.7237 64.1381 59.674 64.0948 59.6108 64.0643C59.5475 64.0337 59.4765 64.0185 59.3977 64.0185C59.3139 64.0185 59.2407 64.0359 59.1782 64.0707C59.1164 64.1048 59.0685 64.1527 59.0344 64.2145C59.001 64.2763 58.9843 64.3487 58.9843 64.4318H58.7329C58.7329 64.304 58.7624 64.1918 58.8213 64.0952C58.8803 63.9986 58.9605 63.9233 59.0621 63.8693C59.1644 63.8153 59.2791 63.7884 59.4062 63.7884C59.534 63.7884 59.6473 63.8153 59.746 63.8693C59.8448 63.9233 59.9222 63.9961 59.9783 64.0877C60.0344 64.1793 60.0625 64.2812 60.0625 64.3935C60.0625 64.4737 60.0479 64.5522 60.0188 64.6289C59.9904 64.7049 59.9407 64.7898 59.8696 64.8835C59.7993 64.9766 59.7017 65.0902 59.5767 65.2244L59.0866 65.7486V65.7656H60.1008V66H58.7244ZM60.4428 65.5526V65.3352L61.4016 63.8182H61.5593V64.1548H61.4527L60.7283 65.3011V65.3182H62.0195V65.5526H60.4428ZM61.4698 66V65.4865V65.3853V63.8182H61.7212V66H61.4698Z" fill="white"/>
</g>
</g>
<path d="M6 45.7766V32.7819H11.696C13.1312 32.7819 14.23 33.1108 14.9924 33.7686C15.7698 34.4264 16.1585 35.3449 16.1585 36.5239C16.1585 37.703 15.7698 38.6215 14.9924 39.2793C14.23 39.9371 13.1312 40.266 11.696 40.266H7.8837V45.7766H6ZM7.8837 38.9069H11.6511C12.4435 38.9069 13.0564 38.7456 13.49 38.4229C13.9385 38.0878 14.1627 37.6161 14.1627 37.008V36.0399C14.1627 35.4317 13.9385 34.9663 13.49 34.6436C13.0564 34.3085 12.4435 34.141 11.6511 34.141H7.8837V38.9069Z" fill="white"/>
<path d="M24.3573 46C23.266 46 22.3092 45.7952 21.4869 45.3856C20.6647 44.9761 20.0293 44.3927 19.5808 43.6356C19.1473 42.8785 18.9305 41.9973 18.9305 40.992C18.9305 39.9867 19.1547 39.1055 19.6032 38.3484C20.0517 37.5789 20.6722 36.9894 21.4645 36.5798C22.2718 36.1578 23.1987 35.9468 24.2452 35.9468C25.2618 35.9468 26.1588 36.1516 26.9362 36.5612C27.7136 36.9583 28.3116 37.5106 28.7302 38.2181C29.1638 38.9255 29.3806 39.7323 29.3806 40.6383V41.3457H20.8142V41.7926C20.8142 42.6489 21.1356 43.3502 21.7785 43.8963C22.4213 44.4424 23.2809 44.7154 24.3573 44.7154C25.1198 44.7154 25.7851 44.5727 26.3532 44.2872C26.9213 43.9894 27.3623 43.5736 27.6763 43.0399L28.9993 43.7846C28.6405 44.4548 28.05 44.9947 27.2278 45.4043C26.4205 45.8014 25.4636 46 24.3573 46ZM24.2452 37.1755C23.6024 37.1755 23.0193 37.3059 22.4961 37.5665C21.9728 37.8147 21.5617 38.1622 21.2627 38.609C20.9637 39.0559 20.8142 39.5523 20.8142 40.0984V40.2287H27.452V40.0239C27.452 39.18 27.153 38.4973 26.555 37.9761C25.972 37.4424 25.202 37.1755 24.2452 37.1755Z" fill="white"/>
<path d="M32.601 44.5106H35.9872V37.4362H32.601V36.1702H37.7812V38.5904H37.8933C38.4614 36.9769 39.7621 36.1702 41.7953 36.1702H43.4099V37.6596H41.2346C40.1433 37.6596 39.2911 37.914 38.6782 38.4229C38.0802 38.9317 37.7812 39.5771 37.7812 40.359V44.5106H42.2662V45.7766H32.601V44.5106Z" fill="white"/>
<path d="M46.1818 44.5106H50.0838V37.4362H45.9576V36.1702H50.0838V35.2207C50.0838 34.352 50.2707 33.6817 50.6444 33.2101C51.0331 32.7385 51.5788 32.422 52.2814 32.2606C52.999 32.0869 53.9484 32 55.1294 32H56.5198V33.266H55.107C54.2548 33.266 53.612 33.3032 53.1784 33.3777C52.7598 33.4397 52.4384 33.6135 52.2142 33.8989C51.9899 34.172 51.8778 34.6064 51.8778 35.2021V36.1702H56.5198V37.4362H51.8778V44.5106H56.004V45.7766H46.1818V44.5106Z" fill="white"/>
<path d="M67.2302 44.2128H67.1405C66.5275 45.4043 65.4287 46 63.844 46C62.6181 46 61.6389 45.6773 60.9063 45.0319C60.1887 44.3865 59.8299 43.4867 59.8299 42.3324V36.1702H61.6239V42.0718C61.6239 42.9406 61.8556 43.5922 62.3191 44.0266C62.7825 44.461 63.4628 44.6782 64.3598 44.6782C65.1521 44.6782 65.8249 44.523 66.378 44.2128C66.9461 43.8901 67.2302 43.4309 67.2302 42.8351V36.1702H69.0242V45.7766H67.2302V44.2128Z" fill="white"/>
<path d="M72.424 45.7766V36.1702H74.0835V37.2872H74.1732C74.3825 36.8652 74.6516 36.5363 74.9805 36.3005C75.3243 36.0647 75.7953 35.9468 76.3933 35.9468C77.0361 35.9468 77.5295 36.0833 77.8733 36.3564C78.2172 36.617 78.4265 36.9832 78.5012 37.4548H78.5685C78.8077 36.9832 79.1216 36.617 79.5103 36.3564C79.914 36.0833 80.4372 35.9468 81.0801 35.9468C81.9771 35.9468 82.5975 36.2074 82.9414 36.7287C83.2852 37.2376 83.4571 38.0319 83.4571 39.1117V45.7766H81.7977V39.3537C81.7977 38.5346 81.693 37.9699 81.4837 37.6596C81.2894 37.3369 80.9231 37.1755 80.3849 37.1755C79.8916 37.1755 79.4954 37.3121 79.1964 37.5851C78.9123 37.8457 78.7703 38.2243 78.7703 38.7207V45.7766H77.1109V39.3537C77.1109 38.5346 77.0062 37.9699 76.7969 37.6596C76.6025 37.3369 76.2438 37.1755 75.7205 37.1755C75.2272 37.1755 74.831 37.3121 74.532 37.5851C74.233 37.8457 74.0835 38.2243 74.0835 38.7207V45.7766H72.424Z" fill="white"/>
<path d="M91.5887 46C90.4973 46 89.5405 45.7952 88.7183 45.3856C87.896 44.9761 87.2606 44.3927 86.8121 43.6356C86.3786 42.8785 86.1618 41.9973 86.1618 40.992C86.1618 39.9867 86.3861 39.1055 86.8346 38.3484C87.2831 37.5789 87.9035 36.9894 88.6958 36.5798C89.5031 36.1578 90.43 35.9468 91.4765 35.9468C92.4931 35.9468 93.3902 36.1516 94.1675 36.5612C94.945 36.9583 95.543 37.5106 95.9616 38.2181C96.3951 38.9255 96.6119 39.7323 96.6119 40.6383V41.3457H88.0455V41.7926C88.0455 42.6489 88.3669 43.3502 89.0098 43.8963C89.6526 44.4424 90.5123 44.7154 91.5887 44.7154C92.3511 44.7154 93.0164 44.5727 93.5845 44.2872C94.1526 43.9894 94.5936 43.5736 94.9076 43.0399L96.2307 43.7846C95.8718 44.4548 95.2813 44.9947 94.4591 45.4043C93.6518 45.8014 92.695 46 91.5887 46ZM91.4765 37.1755C90.8337 37.1755 90.2506 37.3059 89.7274 37.5665C89.2041 37.8147 88.793 38.1622 88.494 38.609C88.195 39.0559 88.0455 39.5523 88.0455 40.0984V40.2287H94.6833V40.0239C94.6833 39.18 94.3843 38.4973 93.7863 37.9761C93.2033 37.4424 92.4333 37.1755 91.4765 37.1755Z" fill="white"/>
<path d="M111 45.7766H108.87L107.008 43.1888L104.945 40.359H104.856L102.725 43.1888L100.752 45.7766H98.6886L103.802 39.1489L98.9802 32.7819H101.111L102.927 35.2952L104.878 37.9202H104.968L106.896 35.2952L108.78 32.7819H110.843L105.999 39.1303L111 45.7766Z" fill="white"/>
<defs>
<clipPath id="clip0_3018_14166">
<rect width="70" height="80" fill="white" transform="translate(27 1)"/>
</clipPath>
<clipPath id="clip1_3018_14166">
<rect width="33" height="10" fill="white" transform="translate(42 57)"/>
</clipPath>
</defs>
</svg>
