<svg width="60" height="60" viewBox="0 0 60 60" fill="none" xmlns="http://www.w3.org/2000/svg">
<circle cx="30" cy="30" r="30" fill="#332623"/>
<path d="M28.9712 14.4457C27.8334 14.7414 26.6376 15.5 25.3969 16.7214C22.1441 19.9293 19.6562 25.2972 18.9041 30.7036C18.7691 31.7257 18.7112 34.0529 18.8076 34.9593C19.2384 39.0029 21.0512 42.2814 23.8605 44.0879C26.1555 45.5664 29.2348 46.1129 32.3269 45.5793C34.7441 45.1679 36.9555 43.895 38.4405 42.0629C39.9127 40.2564 40.7484 38.2122 41.1984 35.3643C41.3012 34.6893 41.3012 31.9572 41.1919 31.1536C40.7612 27.8622 39.8805 24.9564 38.4855 22.1857C36.3384 17.93 33.4905 15.005 30.9191 14.4072C30.3534 14.2786 29.5562 14.2914 28.9712 14.4457Z" fill="white"/>
</svg>
